<svg width="33" height="33" viewBox="0 0 33 33" fill="none" xmlns="http://www.w3.org/2000/svg">
<circle cx="16.5" cy="16.5" r="16" stroke="black"/>
<path d="M15.4276 24V13.0909H17.5511V24H15.4276ZM16.5 11.4077C16.1307 11.4077 15.8134 11.2846 15.5483 11.0384C15.2879 10.7874 15.1577 10.4891 15.1577 10.1435C15.1577 9.79309 15.2879 9.49479 15.5483 9.24858C15.8134 8.99763 16.1307 8.87216 16.5 8.87216C16.8693 8.87216 17.1842 8.99763 17.4446 9.24858C17.7098 9.49479 17.8423 9.79309 17.8423 10.1435C17.8423 10.4891 17.7098 10.7874 17.4446 11.0384C17.1842 11.2846 16.8693 11.4077 16.5 11.4077Z" fill="black"/>
</svg>
